<svg xmlns="http://www.w3.org/2000/svg" viewBox="0 0 48 32" fill="none">
  <rect width="48" height="32" rx="4" fill="#fff" stroke="#E5E7EB"/>
  <circle cx="28" cy="16" r="7" fill="#F47216"/>
  <path d="M8 14H10.5C11.8 14 12.5 14.7 12.5 15.7C12.5 16.7 11.8 17.5 10.5 17.5H9.5V19H8V14Z" fill="#231F20"/>
  <path d="M9.5 15.2V16.4H10.3C10.8 16.4 11.1 16.1 11.1 15.8C11.1 15.4 10.8 15.2 10.3 15.2H9.5Z" fill="#231F20"/>
  <path d="M13 14H14.5V19H13V14Z" fill="#231F20"/>
  <path d="M15 17.2C15 15.9 16 14.8 17.4 14.8C18 14.8 18.5 15 18.8 15.3L18 16C17.8 15.8 17.6 15.7 17.4 15.7C16.7 15.7 16.3 16.3 16.3 17C16.3 17.7 16.7 18.3 17.4 18.3C17.7 18.3 17.9 18.2 18.1 18L18.8 18.7C18.4 19 18 19.2 17.4 19.2C16 19.2 15 18.2 15 17.2Z" fill="#231F20"/>
</svg>
